{
 "cells": [
  {
   "cell_type": "code",
   "execution_count": 80,
   "metadata": {
    "ExecuteTime": {
     "end_time": "2019-02-09T09:10:52.710610Z",
     "start_time": "2019-02-09T09:10:52.704303Z"
    }
   },
   "outputs": [],
   "source": [
    "import cv2,time\n",
    "import IPython.display as Disp"
   ]
  },
  {
   "cell_type": "code",
   "execution_count": 78,
   "metadata": {
    "ExecuteTime": {
     "end_time": "2019-02-09T09:04:10.091425Z",
     "start_time": "2019-02-09T09:04:09.930890Z"
    }
   },
   "outputs": [
    {
     "name": "stdout",
     "output_type": "stream",
     "text": [
      "mkdir: cannot create directory ‘cut_vids’: File exists\r\n"
     ]
    }
   ],
   "source": [
    "vid_name = 'ch01_20190208180212.mp4'\n",
    "\n",
    "cap = cv2.VideoCapture(vid_name)\n",
    "\n",
    "def callback():\n",
    "    print( \"clicked!\")\n",
    "\n",
    "def get_time(t1):\n",
    "    return time.strftime('%H:%M:%S', time.gmtime(t1))\n",
    "    \n",
    "\n",
    "!mkdir cut_vids\n",
    "\n",
    "num_frames = int(cap.get(7))\n",
    "fps = int(cap.get(5))\n",
    "\n",
    "cv2.namedWindow('preview',cv2.WINDOW_NORMAL)\n",
    "# create trackbars for color change\n",
    "def do_nothing(x):\n",
    "    pass\n",
    "\n",
    "cv2.createTrackbar('scroll','preview',0,num_frames,do_nothing)\n",
    "# cv2.createTrackbar('start_frame','preview',0,num_frames,do_nothing)\n",
    "# cv2.createTrackbar('end_frame','preview',0,num_frames,do_nothing)"
   ]
  },
  {
   "cell_type": "code",
   "execution_count": 79,
   "metadata": {
    "ExecuteTime": {
     "end_time": "2019-02-09T09:10:23.686747Z",
     "start_time": "2019-02-09T09:04:10.446356Z"
    }
   },
   "outputs": [
    {
     "name": "stdout",
     "output_type": "stream",
     "text": [
      "ffmpeg version 2.8.15-0ubuntu0.16.04.1 Copyright (c) 2000-2018 the FFmpeg developers\n",
      "  built with gcc 5.4.0 (Ubuntu 5.4.0-6ubuntu1~16.04.10) 20160609\n",
      "  configuration: --prefix=/usr --extra-version=0ubuntu0.16.04.1 --build-suffix=-ffmpeg --toolchain=hardened --libdir=/usr/lib/x86_64-linux-gnu --incdir=/usr/include/x86_64-linux-gnu --cc=cc --cxx=g++ --enable-gpl --enable-shared --disable-stripping --disable-decoder=libopenjpeg --disable-decoder=libschroedinger --enable-avresample --enable-avisynth --enable-gnutls --enable-ladspa --enable-libass --enable-libbluray --enable-libbs2b --enable-libcaca --enable-libcdio --enable-libflite --enable-libfontconfig --enable-libfreetype --enable-libfribidi --enable-libgme --enable-libgsm --enable-libmodplug --enable-libmp3lame --enable-libopenjpeg --enable-libopus --enable-libpulse --enable-librtmp --enable-libschroedinger --enable-libshine --enable-libsnappy --enable-libsoxr --enable-libspeex --enable-libssh --enable-libtheora --enable-libtwolame --enable-libvorbis --enable-libvpx --enable-libwavpack --enable-libwebp --enable-libx265 --enable-libxvid --enable-libzvbi --enable-openal --enable-opengl --enable-x11grab --enable-libdc1394 --enable-libiec61883 --enable-libzmq --enable-frei0r --enable-libx264 --enable-libopencv\n",
      "  libavutil      54. 31.100 / 54. 31.100\n",
      "  libavcodec     56. 60.100 / 56. 60.100\n",
      "  libavformat    56. 40.101 / 56. 40.101\n",
      "  libavdevice    56.  4.100 / 56.  4.100\n",
      "  libavfilter     5. 40.101 /  5. 40.101\n",
      "  libavresample   2.  1.  0 /  2.  1.  0\n",
      "  libswscale      3.  1.101 /  3.  1.101\n",
      "  libswresample   1.  2.101 /  1.  2.101\n",
      "  libpostproc    53.  3.100 / 53.  3.100\n",
      "Input #0, mpeg, from 'ch01_20190208180212.mp4':\n",
      "  Duration: 00:31:59.02, start: 87588.073622, bitrate: 1582 kb/s\n",
      "    Stream #0:0[0x1e0]: Video: hevc (Main), yuvj420p(pc, bt709), 1920x1080, 30 fps, 25 tbr, 90k tbn, 30 tbc\n",
      "    Stream #0:1[0x1c0]: Audio: pcm_mulaw, 8000 Hz, mono, s16, 64 kb/s\n",
      "\u001b[0;33mNo pixel format specified, yuvj420p for H.264 encoding chosen.\n",
      "Use -pix_fmt yuv420p for compatibility with outdated media players.\n",
      "\u001b[0m\u001b[1;36m[libx264 @ 0x26775e0] \u001b[0musing cpu capabilities: MMX2 SSE2Fast SSSE3 SSE4.2 AVX FMA3 AVX2 LZCNT BMI2\n",
      "\u001b[1;36m[libx264 @ 0x26775e0] \u001b[0mprofile High, level 4.0\n",
      "\u001b[1;36m[libx264 @ 0x26775e0] \u001b[0m264 - core 148 r2643 5c65704 - H.264/MPEG-4 AVC codec - Copyleft 2003-2015 - http://www.videolan.org/x264.html - options: cabac=1 ref=3 deblock=1:0:0 analyse=0x3:0x113 me=hex subme=7 psy=1 psy_rd=1.00:0.00 mixed_ref=1 me_range=16 chroma_me=1 trellis=1 8x8dct=1 cqm=0 deadzone=21,11 fast_pskip=1 chroma_qp_offset=-2 threads=12 lookahead_threads=2 sliced_threads=0 nr=0 decimate=1 interlaced=0 bluray_compat=0 constrained_intra=0 bframes=3 b_pyramid=2 b_adapt=1 b_bias=0 direct=1 weightb=1 open_gop=0 weightp=2 keyint=250 keyint_min=25 scenecut=40 intra_refresh=0 rc_lookahead=40 rc=crf mbtree=1 crf=23.0 qcomp=0.60 qpmin=0 qpmax=69 qpstep=4 ip_ratio=1.40 aq=1:1.00\n",
      "\u001b[1;36m[aac @ 0x27d9900] \u001b[0m\u001b[0;33mToo many bits per frame requested, clamping to max\n",
      "\u001b[0mOutput #0, mp4, to 'cut_vids/out_1.mp4':\n",
      "  Metadata:\n",
      "    encoder         : Lavf56.40.101\n",
      "    Stream #0:0: Video: h264 (libx264) ([33][0][0][0] / 0x0021), yuvj420p(pc), 1920x1080, q=-1--1, 25 fps, 12800 tbn, 25 tbc\n",
      "    Metadata:\n",
      "      encoder         : Lavc56.60.100 libx264\n",
      "    Stream #0:1: Audio: aac ([64][0][0][0] / 0x0040), 8000 Hz, mono, fltp, 48 kb/s\n",
      "    Metadata:\n",
      "      encoder         : Lavc56.60.100 aac\n",
      "Stream mapping:\n",
      "  Stream #0:0 -> #0:0 (hevc (native) -> h264 (libx264))\n",
      "  Stream #0:1 -> #0:1 (pcm_mulaw (native) -> aac (native))\n",
      "Press [q] to stop, [?] for help\n",
      "frame= 2160 fps= 54 q=-1.0 Lsize=   19550kB time=00:01:26.44 bitrate=1852.7kbits/s dup=866 drop=0    \n",
      "video:19082kB audio:430kB subtitle:0kB other streams:0kB global headers:0kB muxing overhead: 0.192887%\n",
      "\u001b[1;36m[libx264 @ 0x26775e0] \u001b[0mframe I:9     Avg QP:16.41  size:211957\n",
      "\u001b[1;36m[libx264 @ 0x26775e0] \u001b[0mframe P:597   Avg QP:19.54  size: 24464\n",
      "\u001b[1;36m[libx264 @ 0x26775e0] \u001b[0mframe B:1554  Avg QP:24.26  size:  1948\n",
      "\u001b[1;36m[libx264 @ 0x26775e0] \u001b[0mconsecutive B-frames:  4.0%  0.1%  0.1% 95.7%\n",
      "\u001b[1;36m[libx264 @ 0x26775e0] \u001b[0mmb I  I16..4: 12.2% 53.6% 34.2%\n",
      "\u001b[1;36m[libx264 @ 0x26775e0] \u001b[0mmb P  I16..4:  1.0%  2.7%  0.5%  P16..4: 21.7%  6.5%  4.1%  0.0%  0.0%    skip:63.6%\n",
      "\u001b[1;36m[libx264 @ 0x26775e0] \u001b[0mmb B  I16..4:  0.0%  0.1%  0.0%  B16..8: 11.8%  0.4%  0.1%  direct: 0.3%  skip:87.2%  L0:44.5% L1:53.1% BI: 2.4%\n",
      "\u001b[1;36m[libx264 @ 0x26775e0] \u001b[0m8x8 transform intra:61.7% inter:69.9%\n",
      "\u001b[1;36m[libx264 @ 0x26775e0] \u001b[0mcoded y,uvDC,uvAC intra: 59.1% 34.7% 8.9% inter: 4.5% 4.3% 0.2%\n",
      "\u001b[1;36m[libx264 @ 0x26775e0] \u001b[0mi16 v,h,dc,p: 11% 25%  5% 59%\n",
      "\u001b[1;36m[libx264 @ 0x26775e0] \u001b[0mi8 v,h,dc,ddl,ddr,vr,hd,vl,hu: 19% 17% 20%  5%  7%  6% 10%  6%  9%\n",
      "\u001b[1;36m[libx264 @ 0x26775e0] \u001b[0mi4 v,h,dc,ddl,ddr,vr,hd,vl,hu: 25% 19% 14%  5%  8%  7% 10%  6%  6%\n",
      "\u001b[1;36m[libx264 @ 0x26775e0] \u001b[0mi8c dc,h,v,p: 62% 17% 18%  3%\n",
      "\u001b[1;36m[libx264 @ 0x26775e0] \u001b[0mWeighted P-Frames: Y:0.0% UV:0.0%\n",
      "\u001b[1;36m[libx264 @ 0x26775e0] \u001b[0mref P L0: 68.4% 12.7% 14.5%  4.4%\n",
      "\u001b[1;36m[libx264 @ 0x26775e0] \u001b[0mref B L0: 86.2% 12.0%  1.8%\n",
      "\u001b[1;36m[libx264 @ 0x26775e0] \u001b[0mref B L1: 96.4%  3.6%\n",
      "\u001b[1;36m[libx264 @ 0x26775e0] \u001b[0mkb/s:1809.22\n",
      "ffmpeg version 2.8.15-0ubuntu0.16.04.1 Copyright (c) 2000-2018 the FFmpeg developers\n",
      "  built with gcc 5.4.0 (Ubuntu 5.4.0-6ubuntu1~16.04.10) 20160609\n",
      "  configuration: --prefix=/usr --extra-version=0ubuntu0.16.04.1 --build-suffix=-ffmpeg --toolchain=hardened --libdir=/usr/lib/x86_64-linux-gnu --incdir=/usr/include/x86_64-linux-gnu --cc=cc --cxx=g++ --enable-gpl --enable-shared --disable-stripping --disable-decoder=libopenjpeg --disable-decoder=libschroedinger --enable-avresample --enable-avisynth --enable-gnutls --enable-ladspa --enable-libass --enable-libbluray --enable-libbs2b --enable-libcaca --enable-libcdio --enable-libflite --enable-libfontconfig --enable-libfreetype --enable-libfribidi --enable-libgme --enable-libgsm --enable-libmodplug --enable-libmp3lame --enable-libopenjpeg --enable-libopus --enable-libpulse --enable-librtmp --enable-libschroedinger --enable-libshine --enable-libsnappy --enable-libsoxr --enable-libspeex --enable-libssh --enable-libtheora --enable-libtwolame --enable-libvorbis --enable-libvpx --enable-libwavpack --enable-libwebp --enable-libx265 --enable-libxvid --enable-libzvbi --enable-openal --enable-opengl --enable-x11grab --enable-libdc1394 --enable-libiec61883 --enable-libzmq --enable-frei0r --enable-libx264 --enable-libopencv\n",
      "  libavutil      54. 31.100 / 54. 31.100\n",
      "  libavcodec     56. 60.100 / 56. 60.100\n",
      "  libavformat    56. 40.101 / 56. 40.101\n",
      "  libavdevice    56.  4.100 / 56.  4.100\n",
      "  libavfilter     5. 40.101 /  5. 40.101\n",
      "  libavresample   2.  1.  0 /  2.  1.  0\n",
      "  libswscale      3.  1.101 /  3.  1.101\n",
      "  libswresample   1.  2.101 /  1.  2.101\n",
      "  libpostproc    53.  3.100 / 53.  3.100\n",
      "Input #0, mpeg, from 'ch01_20190208180212.mp4':\n",
      "  Duration: 00:31:59.02, start: 87588.073622, bitrate: 1582 kb/s\n",
      "    Stream #0:0[0x1e0]: Video: hevc (Main), yuvj420p(pc, bt709), 1920x1080, 30 fps, 25 tbr, 90k tbn, 30 tbc\n",
      "    Stream #0:1[0x1c0]: Audio: pcm_mulaw, 8000 Hz, mono, s16, 64 kb/s\n",
      "\u001b[0;33mNo pixel format specified, yuvj420p for H.264 encoding chosen.\n",
      "Use -pix_fmt yuv420p for compatibility with outdated media players.\n",
      "\u001b[0m\u001b[1;36m[libx264 @ 0x13f05e0] \u001b[0musing cpu capabilities: MMX2 SSE2Fast SSSE3 SSE4.2 AVX FMA3 AVX2 LZCNT BMI2\n",
      "\u001b[1;36m[libx264 @ 0x13f05e0] \u001b[0mprofile High, level 4.0\n",
      "\u001b[1;36m[libx264 @ 0x13f05e0] \u001b[0m264 - core 148 r2643 5c65704 - H.264/MPEG-4 AVC codec - Copyleft 2003-2015 - http://www.videolan.org/x264.html - options: cabac=1 ref=3 deblock=1:0:0 analyse=0x3:0x113 me=hex subme=7 psy=1 psy_rd=1.00:0.00 mixed_ref=1 me_range=16 chroma_me=1 trellis=1 8x8dct=1 cqm=0 deadzone=21,11 fast_pskip=1 chroma_qp_offset=-2 threads=12 lookahead_threads=2 sliced_threads=0 nr=0 decimate=1 interlaced=0 bluray_compat=0 constrained_intra=0 bframes=3 b_pyramid=2 b_adapt=1 b_bias=0 direct=1 weightb=1 open_gop=0 weightp=2 keyint=250 keyint_min=25 scenecut=40 intra_refresh=0 rc_lookahead=40 rc=crf mbtree=1 crf=23.0 qcomp=0.60 qpmin=0 qpmax=69 qpstep=4 ip_ratio=1.40 aq=1:1.00\n",
      "\u001b[1;36m[aac @ 0x1552900] \u001b[0m\u001b[0;33mToo many bits per frame requested, clamping to max\n",
      "\u001b[0mOutput #0, mp4, to 'cut_vids/out_2.mp4':\n",
      "  Metadata:\n",
      "    encoder         : Lavf56.40.101\n",
      "    Stream #0:0: Video: h264 (libx264) ([33][0][0][0] / 0x0021), yuvj420p(pc), 1920x1080, q=-1--1, 25 fps, 12800 tbn, 25 tbc\n",
      "    Metadata:\n",
      "      encoder         : Lavc56.60.100 libx264\n",
      "    Stream #0:1: Audio: aac ([64][0][0][0] / 0x0040), 8000 Hz, mono, fltp, 48 kb/s\n",
      "    Metadata:\n",
      "      encoder         : Lavc56.60.100 aac\n",
      "Stream mapping:\n",
      "  Stream #0:0 -> #0:0 (hevc (native) -> h264 (libx264))\n",
      "  Stream #0:1 -> #0:1 (pcm_mulaw (native) -> aac (native))\n",
      "Press [q] to stop, [?] for help\n"
     ]
    },
    {
     "name": "stdout",
     "output_type": "stream",
     "text": [
      "frame= 1790 fps= 53 q=-1.0 Lsize=   17037kB time=00:01:11.68 bitrate=1947.0kbits/s dup=718 drop=0    \n",
      "video:16649kB audio:357kB subtitle:0kB other streams:0kB global headers:0kB muxing overhead: 0.184793%\n",
      "\u001b[1;36m[libx264 @ 0x13f05e0] \u001b[0mframe I:8     Avg QP:16.50  size:208932\n",
      "\u001b[1;36m[libx264 @ 0x13f05e0] \u001b[0mframe P:496   Avg QP:19.63  size: 25408\n",
      "\u001b[1;36m[libx264 @ 0x13f05e0] \u001b[0mframe B:1286  Avg QP:24.29  size:  2157\n",
      "\u001b[1;36m[libx264 @ 0x13f05e0] \u001b[0mconsecutive B-frames:  4.1%  0.0%  0.7% 95.2%\n",
      "\u001b[1;36m[libx264 @ 0x13f05e0] \u001b[0mmb I  I16..4: 12.3% 53.9% 33.7%\n",
      "\u001b[1;36m[libx264 @ 0x13f05e0] \u001b[0mmb P  I16..4:  1.0%  3.1%  0.6%  P16..4: 21.6%  6.5%  4.0%  0.0%  0.0%    skip:63.1%\n",
      "\u001b[1;36m[libx264 @ 0x13f05e0] \u001b[0mmb B  I16..4:  0.0%  0.1%  0.0%  B16..8: 11.9%  0.5%  0.2%  direct: 0.4%  skip:87.0%  L0:45.0% L1:52.4% BI: 2.5%\n",
      "\u001b[1;36m[libx264 @ 0x13f05e0] \u001b[0m8x8 transform intra:62.2% inter:70.4%\n",
      "\u001b[1;36m[libx264 @ 0x13f05e0] \u001b[0mcoded y,uvDC,uvAC intra: 59.9% 36.6% 9.9% inter: 4.6% 4.4% 0.2%\n",
      "\u001b[1;36m[libx264 @ 0x13f05e0] \u001b[0mi16 v,h,dc,p: 11% 26%  5% 58%\n",
      "\u001b[1;36m[libx264 @ 0x13f05e0] \u001b[0mi8 v,h,dc,ddl,ddr,vr,hd,vl,hu: 18% 17% 20%  5%  8%  7% 10%  6% 10%\n",
      "\u001b[1;36m[libx264 @ 0x13f05e0] \u001b[0mi4 v,h,dc,ddl,ddr,vr,hd,vl,hu: 24% 19% 14%  5%  8%  7% 11%  5%  6%\n",
      "\u001b[1;36m[libx264 @ 0x13f05e0] \u001b[0mi8c dc,h,v,p: 62% 17% 18%  3%\n",
      "\u001b[1;36m[libx264 @ 0x13f05e0] \u001b[0mWeighted P-Frames: Y:0.0% UV:0.0%\n",
      "\u001b[1;36m[libx264 @ 0x13f05e0] \u001b[0mref P L0: 67.7% 13.6% 14.3%  4.4%\n",
      "\u001b[1;36m[libx264 @ 0x13f05e0] \u001b[0mref B L0: 86.7% 11.5%  1.8%\n",
      "\u001b[1;36m[libx264 @ 0x13f05e0] \u001b[0mref B L1: 96.4%  3.6%\n",
      "\u001b[1;36m[libx264 @ 0x13f05e0] \u001b[0mkb/s:1904.79\n",
      "ffmpeg version 2.8.15-0ubuntu0.16.04.1 Copyright (c) 2000-2018 the FFmpeg developers\n",
      "  built with gcc 5.4.0 (Ubuntu 5.4.0-6ubuntu1~16.04.10) 20160609\n",
      "  configuration: --prefix=/usr --extra-version=0ubuntu0.16.04.1 --build-suffix=-ffmpeg --toolchain=hardened --libdir=/usr/lib/x86_64-linux-gnu --incdir=/usr/include/x86_64-linux-gnu --cc=cc --cxx=g++ --enable-gpl --enable-shared --disable-stripping --disable-decoder=libopenjpeg --disable-decoder=libschroedinger --enable-avresample --enable-avisynth --enable-gnutls --enable-ladspa --enable-libass --enable-libbluray --enable-libbs2b --enable-libcaca --enable-libcdio --enable-libflite --enable-libfontconfig --enable-libfreetype --enable-libfribidi --enable-libgme --enable-libgsm --enable-libmodplug --enable-libmp3lame --enable-libopenjpeg --enable-libopus --enable-libpulse --enable-librtmp --enable-libschroedinger --enable-libshine --enable-libsnappy --enable-libsoxr --enable-libspeex --enable-libssh --enable-libtheora --enable-libtwolame --enable-libvorbis --enable-libvpx --enable-libwavpack --enable-libwebp --enable-libx265 --enable-libxvid --enable-libzvbi --enable-openal --enable-opengl --enable-x11grab --enable-libdc1394 --enable-libiec61883 --enable-libzmq --enable-frei0r --enable-libx264 --enable-libopencv\n",
      "  libavutil      54. 31.100 / 54. 31.100\n",
      "  libavcodec     56. 60.100 / 56. 60.100\n",
      "  libavformat    56. 40.101 / 56. 40.101\n",
      "  libavdevice    56.  4.100 / 56.  4.100\n",
      "  libavfilter     5. 40.101 /  5. 40.101\n",
      "  libavresample   2.  1.  0 /  2.  1.  0\n",
      "  libswscale      3.  1.101 /  3.  1.101\n",
      "  libswresample   1.  2.101 /  1.  2.101\n",
      "  libpostproc    53.  3.100 / 53.  3.100\n",
      "Input #0, mpeg, from 'ch01_20190208180212.mp4':\n",
      "  Duration: 00:31:59.02, start: 87588.073622, bitrate: 1582 kb/s\n",
      "    Stream #0:0[0x1e0]: Video: hevc (Main), yuvj420p(pc, bt709), 1920x1080, 30 fps, 25 tbr, 90k tbn, 30 tbc\n",
      "    Stream #0:1[0x1c0]: Audio: pcm_mulaw, 8000 Hz, mono, s16, 64 kb/s\n",
      "\u001b[0;33mNo pixel format specified, yuvj420p for H.264 encoding chosen.\n",
      "Use -pix_fmt yuv420p for compatibility with outdated media players.\n",
      "\u001b[0m\u001b[1;36m[libx264 @ 0x22055e0] \u001b[0musing cpu capabilities: MMX2 SSE2Fast SSSE3 SSE4.2 AVX FMA3 AVX2 LZCNT BMI2\n",
      "\u001b[1;36m[libx264 @ 0x22055e0] \u001b[0mprofile High, level 4.0\n",
      "\u001b[1;36m[libx264 @ 0x22055e0] \u001b[0m264 - core 148 r2643 5c65704 - H.264/MPEG-4 AVC codec - Copyleft 2003-2015 - http://www.videolan.org/x264.html - options: cabac=1 ref=3 deblock=1:0:0 analyse=0x3:0x113 me=hex subme=7 psy=1 psy_rd=1.00:0.00 mixed_ref=1 me_range=16 chroma_me=1 trellis=1 8x8dct=1 cqm=0 deadzone=21,11 fast_pskip=1 chroma_qp_offset=-2 threads=12 lookahead_threads=2 sliced_threads=0 nr=0 decimate=1 interlaced=0 bluray_compat=0 constrained_intra=0 bframes=3 b_pyramid=2 b_adapt=1 b_bias=0 direct=1 weightb=1 open_gop=0 weightp=2 keyint=250 keyint_min=25 scenecut=40 intra_refresh=0 rc_lookahead=40 rc=crf mbtree=1 crf=23.0 qcomp=0.60 qpmin=0 qpmax=69 qpstep=4 ip_ratio=1.40 aq=1:1.00\n",
      "\u001b[1;36m[aac @ 0x2367900] \u001b[0m\u001b[0;33mToo many bits per frame requested, clamping to max\n",
      "\u001b[0mOutput #0, mp4, to 'cut_vids/out_3.mp4':\n",
      "  Metadata:\n",
      "    encoder         : Lavf56.40.101\n",
      "    Stream #0:0: Video: h264 (libx264) ([33][0][0][0] / 0x0021), yuvj420p(pc), 1920x1080, q=-1--1, 25 fps, 12800 tbn, 25 tbc\n",
      "    Metadata:\n",
      "      encoder         : Lavc56.60.100 libx264\n",
      "    Stream #0:1: Audio: aac ([64][0][0][0] / 0x0040), 8000 Hz, mono, fltp, 48 kb/s\n",
      "    Metadata:\n",
      "      encoder         : Lavc56.60.100 aac\n",
      "Stream mapping:\n",
      "  Stream #0:0 -> #0:0 (hevc (native) -> h264 (libx264))\n",
      "  Stream #0:1 -> #0:1 (pcm_mulaw (native) -> aac (native))\n",
      "Press [q] to stop, [?] for help\n",
      "frame= 1676 fps= 53 q=-1.0 Lsize=   15762kB time=00:01:07.11 bitrate=1923.9kbits/s dup=671 drop=0    \n",
      "video:15399kB audio:334kB subtitle:0kB other streams:0kB global headers:0kB muxing overhead: 0.187579%\n",
      "\u001b[1;36m[libx264 @ 0x22055e0] \u001b[0mframe I:7     Avg QP:16.50  size:202422\n",
      "\u001b[1;36m[libx264 @ 0x22055e0] \u001b[0mframe P:464   Avg QP:19.69  size: 25404\n",
      "\u001b[1;36m[libx264 @ 0x22055e0] \u001b[0mframe B:1205  Avg QP:24.12  size:  2127\n",
      "\u001b[1;36m[libx264 @ 0x22055e0] \u001b[0mconsecutive B-frames:  4.1%  0.0%  0.2% 95.7%\n",
      "\u001b[1;36m[libx264 @ 0x22055e0] \u001b[0mmb I  I16..4: 12.2% 54.3% 33.6%\n",
      "\u001b[1;36m[libx264 @ 0x22055e0] \u001b[0mmb P  I16..4:  1.1%  3.5%  0.7%  P16..4: 22.0%  6.6%  4.0%  0.0%  0.0%    skip:62.2%\n",
      "\u001b[1;36m[libx264 @ 0x22055e0] \u001b[0mmb B  I16..4:  0.0%  0.1%  0.0%  B16..8: 12.1%  0.5%  0.1%  direct: 0.4%  skip:86.7%  L0:45.1% L1:52.5% BI: 2.4%\n",
      "\u001b[1;36m[libx264 @ 0x22055e0] \u001b[0m8x8 transform intra:63.9% inter:71.0%\n",
      "\u001b[1;36m[libx264 @ 0x22055e0] \u001b[0mcoded y,uvDC,uvAC intra: 59.9% 44.4% 15.9% inter: 4.7% 4.9% 0.3%\n",
      "\u001b[1;36m[libx264 @ 0x22055e0] \u001b[0mi16 v,h,dc,p: 11% 25%  6% 57%\n",
      "\u001b[1;36m[libx264 @ 0x22055e0] \u001b[0mi8 v,h,dc,ddl,ddr,vr,hd,vl,hu: 18% 16% 19%  5%  8%  7% 10%  6% 10%\n",
      "\u001b[1;36m[libx264 @ 0x22055e0] \u001b[0mi4 v,h,dc,ddl,ddr,vr,hd,vl,hu: 25% 19% 15%  5%  8%  7% 10%  5%  6%\n",
      "\u001b[1;36m[libx264 @ 0x22055e0] \u001b[0mi8c dc,h,v,p: 57% 18% 21%  5%\n",
      "\u001b[1;36m[libx264 @ 0x22055e0] \u001b[0mWeighted P-Frames: Y:0.0% UV:0.0%\n",
      "\u001b[1;36m[libx264 @ 0x22055e0] \u001b[0mref P L0: 67.6% 13.9% 14.1%  4.4%\n",
      "\u001b[1;36m[libx264 @ 0x22055e0] \u001b[0mref B L0: 86.8% 11.6%  1.6%\n",
      "\u001b[1;36m[libx264 @ 0x22055e0] \u001b[0mref B L1: 96.5%  3.5%\n",
      "\u001b[1;36m[libx264 @ 0x22055e0] \u001b[0mkb/s:1881.62\n",
      "ffmpeg version 2.8.15-0ubuntu0.16.04.1 Copyright (c) 2000-2018 the FFmpeg developers\n",
      "  built with gcc 5.4.0 (Ubuntu 5.4.0-6ubuntu1~16.04.10) 20160609\n",
      "  configuration: --prefix=/usr --extra-version=0ubuntu0.16.04.1 --build-suffix=-ffmpeg --toolchain=hardened --libdir=/usr/lib/x86_64-linux-gnu --incdir=/usr/include/x86_64-linux-gnu --cc=cc --cxx=g++ --enable-gpl --enable-shared --disable-stripping --disable-decoder=libopenjpeg --disable-decoder=libschroedinger --enable-avresample --enable-avisynth --enable-gnutls --enable-ladspa --enable-libass --enable-libbluray --enable-libbs2b --enable-libcaca --enable-libcdio --enable-libflite --enable-libfontconfig --enable-libfreetype --enable-libfribidi --enable-libgme --enable-libgsm --enable-libmodplug --enable-libmp3lame --enable-libopenjpeg --enable-libopus --enable-libpulse --enable-librtmp --enable-libschroedinger --enable-libshine --enable-libsnappy --enable-libsoxr --enable-libspeex --enable-libssh --enable-libtheora --enable-libtwolame --enable-libvorbis --enable-libvpx --enable-libwavpack --enable-libwebp --enable-libx265 --enable-libxvid --enable-libzvbi --enable-openal --enable-opengl --enable-x11grab --enable-libdc1394 --enable-libiec61883 --enable-libzmq --enable-frei0r --enable-libx264 --enable-libopencv\n",
      "  libavutil      54. 31.100 / 54. 31.100\n",
      "  libavcodec     56. 60.100 / 56. 60.100\n",
      "  libavformat    56. 40.101 / 56. 40.101\n",
      "  libavdevice    56.  4.100 / 56.  4.100\n",
      "  libavfilter     5. 40.101 /  5. 40.101\n",
      "  libavresample   2.  1.  0 /  2.  1.  0\n",
      "  libswscale      3.  1.101 /  3.  1.101\n",
      "  libswresample   1.  2.101 /  1.  2.101\n",
      "  libpostproc    53.  3.100 / 53.  3.100\n",
      "Input #0, mpeg, from 'ch01_20190208180212.mp4':\n",
      "  Duration: 00:31:59.02, start: 87588.073622, bitrate: 1582 kb/s\n",
      "    Stream #0:0[0x1e0]: Video: hevc (Main), yuvj420p(pc, bt709), 1920x1080, 30 fps, 25 tbr, 90k tbn, 30 tbc\n",
      "    Stream #0:1[0x1c0]: Audio: pcm_mulaw, 8000 Hz, mono, s16, 64 kb/s\n",
      "\u001b[0;33mNo pixel format specified, yuvj420p for H.264 encoding chosen.\n",
      "Use -pix_fmt yuv420p for compatibility with outdated media players.\n",
      "\u001b[0m\u001b[1;36m[libx264 @ 0x19af5e0] \u001b[0musing cpu capabilities: MMX2 SSE2Fast SSSE3 SSE4.2 AVX FMA3 AVX2 LZCNT BMI2\n",
      "\u001b[1;36m[libx264 @ 0x19af5e0] \u001b[0mprofile High, level 4.0\n",
      "\u001b[1;36m[libx264 @ 0x19af5e0] \u001b[0m264 - core 148 r2643 5c65704 - H.264/MPEG-4 AVC codec - Copyleft 2003-2015 - http://www.videolan.org/x264.html - options: cabac=1 ref=3 deblock=1:0:0 analyse=0x3:0x113 me=hex subme=7 psy=1 psy_rd=1.00:0.00 mixed_ref=1 me_range=16 chroma_me=1 trellis=1 8x8dct=1 cqm=0 deadzone=21,11 fast_pskip=1 chroma_qp_offset=-2 threads=12 lookahead_threads=2 sliced_threads=0 nr=0 decimate=1 interlaced=0 bluray_compat=0 constrained_intra=0 bframes=3 b_pyramid=2 b_adapt=1 b_bias=0 direct=1 weightb=1 open_gop=0 weightp=2 keyint=250 keyint_min=25 scenecut=40 intra_refresh=0 rc_lookahead=40 rc=crf mbtree=1 crf=23.0 qcomp=0.60 qpmin=0 qpmax=69 qpstep=4 ip_ratio=1.40 aq=1:1.00\n",
      "\u001b[1;36m[aac @ 0x1b11900] \u001b[0m\u001b[0;33mToo many bits per frame requested, clamping to max\n",
      "\u001b[0mOutput #0, mp4, to 'cut_vids/out_4.mp4':\n",
      "  Metadata:\n",
      "    encoder         : Lavf56.40.101\n",
      "    Stream #0:0: Video: h264 (libx264) ([33][0][0][0] / 0x0021), yuvj420p(pc), 1920x1080, q=-1--1, 25 fps, 12800 tbn, 25 tbc\n",
      "    Metadata:\n",
      "      encoder         : Lavc56.60.100 libx264\n",
      "    Stream #0:1: Audio: aac ([64][0][0][0] / 0x0040), 8000 Hz, mono, fltp, 48 kb/s\n",
      "    Metadata:\n",
      "      encoder         : Lavc56.60.100 aac\n",
      "Stream mapping:\n",
      "  Stream #0:0 -> #0:0 (hevc (native) -> h264 (libx264))\n",
      "  Stream #0:1 -> #0:1 (pcm_mulaw (native) -> aac (native))\n",
      "Press [q] to stop, [?] for help\n"
     ]
    },
    {
     "name": "stdout",
     "output_type": "stream",
     "text": [
      "frame= 1449 fps= 54 q=-1.0 Lsize=   13938kB time=00:00:58.02 bitrate=1967.7kbits/s dup=580 drop=0    \n",
      "video:13625kB audio:287kB subtitle:0kB other streams:0kB global headers:0kB muxing overhead: 0.184748%\n",
      "\u001b[1;36m[libx264 @ 0x19af5e0] \u001b[0mframe I:6     Avg QP:16.61  size:203273\n",
      "\u001b[1;36m[libx264 @ 0x19af5e0] \u001b[0mframe P:402   Avg QP:19.76  size: 25991\n",
      "\u001b[1;36m[libx264 @ 0x19af5e0] \u001b[0mframe B:1041  Avg QP:24.40  size:  2194\n",
      "\u001b[1;36m[libx264 @ 0x19af5e0] \u001b[0mconsecutive B-frames:  4.1%  0.0%  0.6% 95.2%\n",
      "\u001b[1;36m[libx264 @ 0x19af5e0] \u001b[0mmb I  I16..4: 12.2% 54.5% 33.4%\n",
      "\u001b[1;36m[libx264 @ 0x19af5e0] \u001b[0mmb P  I16..4:  1.0%  3.4%  0.7%  P16..4: 22.0%  6.8%  4.1%  0.0%  0.0%    skip:62.1%\n",
      "\u001b[1;36m[libx264 @ 0x19af5e0] \u001b[0mmb B  I16..4:  0.0%  0.1%  0.0%  B16..8: 12.3%  0.5%  0.1%  direct: 0.4%  skip:86.5%  L0:45.4% L1:52.2% BI: 2.4%\n",
      "\u001b[1;36m[libx264 @ 0x19af5e0] \u001b[0m8x8 transform intra:63.9% inter:70.8%\n",
      "\u001b[1;36m[libx264 @ 0x19af5e0] \u001b[0mcoded y,uvDC,uvAC intra: 60.5% 46.0% 17.5% inter: 4.8% 4.8% 0.3%\n",
      "\u001b[1;36m[libx264 @ 0x19af5e0] \u001b[0mi16 v,h,dc,p: 11% 24%  6% 58%\n",
      "\u001b[1;36m[libx264 @ 0x19af5e0] \u001b[0mi8 v,h,dc,ddl,ddr,vr,hd,vl,hu: 18% 16% 19%  5%  8%  6% 10%  7% 10%\n",
      "\u001b[1;36m[libx264 @ 0x19af5e0] \u001b[0mi4 v,h,dc,ddl,ddr,vr,hd,vl,hu: 24% 19% 15%  5%  9%  7% 11%  5%  6%\n",
      "\u001b[1;36m[libx264 @ 0x19af5e0] \u001b[0mi8c dc,h,v,p: 56% 18% 21%  5%\n",
      "\u001b[1;36m[libx264 @ 0x19af5e0] \u001b[0mWeighted P-Frames: Y:0.0% UV:0.0%\n",
      "\u001b[1;36m[libx264 @ 0x19af5e0] \u001b[0mref P L0: 67.1% 14.1% 14.3%  4.4%\n",
      "\u001b[1;36m[libx264 @ 0x19af5e0] \u001b[0mref B L0: 86.6% 11.6%  1.8%\n",
      "\u001b[1;36m[libx264 @ 0x19af5e0] \u001b[0mref B L1: 96.6%  3.4%\n",
      "\u001b[1;36m[libx264 @ 0x19af5e0] \u001b[0mkb/s:1925.70\n"
     ]
    }
   ],
   "source": [
    "### use track bar to slide in video\n",
    "### press s to start cut of vide\n",
    "### press e to en the cut\n",
    "### press c to confirm\n",
    "vid_idx=0\n",
    "font = cv2.FONT_HERSHEY_SIMPLEX\n",
    "while True:\n",
    "    Disp.clear_output(wait=True)\n",
    "\n",
    "\n",
    "    ret,frame = cap.read()\n",
    "    cv2.putText(frame,\"1. press s to start \",(20,20), font, 1,(0,0,255),2,cv2.LINE_AA)\n",
    "    cv2.putText(frame,\"2. press e to start \",(20,40), font, 1,(0,0,255),2,cv2.LINE_AA)\n",
    "    cv2.putText(frame,\"3. press c to confirm \",(20,60), font, 1,(0,0,255),2,cv2.LINE_AA)\n",
    "\n",
    "    ### current frame Position\n",
    "    c_f = int(cv2.getTrackbarPos('scroll','preview'))\n",
    "    cap.set(1,c_f)\n",
    "    \n",
    "    cv2.imshow('preview',frame)\n",
    "    k = cv2.waitKey(1)\n",
    "    if ((k==83) or (k==115)):#press s\n",
    "        t1 = c_f\n",
    "    if ((k==69) or (k==101)):#press e\n",
    "        t2 = c_f    \n",
    "    if ((k==67)) or ((k==99)):# press c\n",
    "        vid_idx+=1\n",
    "        start_time  =  get_time(t1/fps)\n",
    "        num_second = (t2-t1)/fps\n",
    "        file_name = 'cut_vids/out_'+str(vid_idx)+'.mp4'\n",
    "        !ffmpeg -ss {start_time} -i {vid_name} -t {num_second} -c:v libx264 -c:a aac -strict experimental -b:a 128k {file_name} -y \n",
    "    if k==27:\n",
    "        cv2.destroyAllWindows()\n",
    "        cap.release()\n",
    "        break\n",
    "        \n",
    "        \n",
    "    \n",
    "    "
   ]
  },
  {
   "cell_type": "code",
   "execution_count": 76,
   "metadata": {
    "ExecuteTime": {
     "end_time": "2019-02-09T09:00:46.594105Z",
     "start_time": "2019-02-09T08:59:35.170284Z"
    }
   },
   "outputs": [
    {
     "name": "stdout",
     "output_type": "stream",
     "text": [
      "ffmpeg version 2.8.15-0ubuntu0.16.04.1 Copyright (c) 2000-2018 the FFmpeg developers\n",
      "  built with gcc 5.4.0 (Ubuntu 5.4.0-6ubuntu1~16.04.10) 20160609\n",
      "  configuration: --prefix=/usr --extra-version=0ubuntu0.16.04.1 --build-suffix=-ffmpeg --toolchain=hardened --libdir=/usr/lib/x86_64-linux-gnu --incdir=/usr/include/x86_64-linux-gnu --cc=cc --cxx=g++ --enable-gpl --enable-shared --disable-stripping --disable-decoder=libopenjpeg --disable-decoder=libschroedinger --enable-avresample --enable-avisynth --enable-gnutls --enable-ladspa --enable-libass --enable-libbluray --enable-libbs2b --enable-libcaca --enable-libcdio --enable-libflite --enable-libfontconfig --enable-libfreetype --enable-libfribidi --enable-libgme --enable-libgsm --enable-libmodplug --enable-libmp3lame --enable-libopenjpeg --enable-libopus --enable-libpulse --enable-librtmp --enable-libschroedinger --enable-libshine --enable-libsnappy --enable-libsoxr --enable-libspeex --enable-libssh --enable-libtheora --enable-libtwolame --enable-libvorbis --enable-libvpx --enable-libwavpack --enable-libwebp --enable-libx265 --enable-libxvid --enable-libzvbi --enable-openal --enable-opengl --enable-x11grab --enable-libdc1394 --enable-libiec61883 --enable-libzmq --enable-frei0r --enable-libx264 --enable-libopencv\n",
      "  libavutil      54. 31.100 / 54. 31.100\n",
      "  libavcodec     56. 60.100 / 56. 60.100\n",
      "  libavformat    56. 40.101 / 56. 40.101\n",
      "  libavdevice    56.  4.100 / 56.  4.100\n",
      "  libavfilter     5. 40.101 /  5. 40.101\n",
      "  libavresample   2.  1.  0 /  2.  1.  0\n",
      "  libswscale      3.  1.101 /  3.  1.101\n",
      "  libswresample   1.  2.101 /  1.  2.101\n",
      "  libpostproc    53.  3.100 / 53.  3.100\n",
      "Input #0, mpeg, from 'ch01_20190208180212.mp4':\n",
      "  Duration: 00:31:59.02, start: 87588.073622, bitrate: 1582 kb/s\n",
      "    Stream #0:0[0x1e0]: Video: hevc (Main), yuvj420p(pc, bt709), 1920x1080, 30 fps, 25 tbr, 90k tbn, 30 tbc\n",
      "    Stream #0:1[0x1c0]: Audio: pcm_mulaw, 8000 Hz, mono, s16, 64 kb/s\n",
      "\u001b[0;33mNo pixel format specified, yuvj420p for H.264 encoding chosen.\n",
      "Use -pix_fmt yuv420p for compatibility with outdated media players.\n",
      "\u001b[0m\u001b[1;36m[libx264 @ 0x24515e0] \u001b[0musing cpu capabilities: MMX2 SSE2Fast SSSE3 SSE4.2 AVX FMA3 AVX2 LZCNT BMI2\n",
      "\u001b[1;36m[libx264 @ 0x24515e0] \u001b[0mprofile High, level 4.0\n",
      "\u001b[1;36m[libx264 @ 0x24515e0] \u001b[0m264 - core 148 r2643 5c65704 - H.264/MPEG-4 AVC codec - Copyleft 2003-2015 - http://www.videolan.org/x264.html - options: cabac=1 ref=3 deblock=1:0:0 analyse=0x3:0x113 me=hex subme=7 psy=1 psy_rd=1.00:0.00 mixed_ref=1 me_range=16 chroma_me=1 trellis=1 8x8dct=1 cqm=0 deadzone=21,11 fast_pskip=1 chroma_qp_offset=-2 threads=12 lookahead_threads=2 sliced_threads=0 nr=0 decimate=1 interlaced=0 bluray_compat=0 constrained_intra=0 bframes=3 b_pyramid=2 b_adapt=1 b_bias=0 direct=1 weightb=1 open_gop=0 weightp=2 keyint=250 keyint_min=25 scenecut=40 intra_refresh=0 rc_lookahead=40 rc=crf mbtree=1 crf=23.0 qcomp=0.60 qpmin=0 qpmax=69 qpstep=4 ip_ratio=1.40 aq=1:1.00\n",
      "\u001b[1;36m[aac @ 0x25b3900] \u001b[0m\u001b[0;33mToo many bits per frame requested, clamping to max\n",
      "\u001b[0mOutput #0, mp4, to 'cut_vids/out_1.mp4':\n",
      "  Metadata:\n",
      "    encoder         : Lavf56.40.101\n",
      "    Stream #0:0: Video: h264 (libx264) ([33][0][0][0] / 0x0021), yuvj420p(pc), 1920x1080, q=-1--1, 25 fps, 12800 tbn, 25 tbc\n",
      "    Metadata:\n",
      "      encoder         : Lavc56.60.100 libx264\n",
      "    Stream #0:1: Audio: aac ([64][0][0][0] / 0x0040), 8000 Hz, mono, fltp, 48 kb/s\n",
      "    Metadata:\n",
      "      encoder         : Lavc56.60.100 aac\n",
      "Stream mapping:\n",
      "  Stream #0:0 -> #0:0 (hevc (native) -> h264 (libx264))\n",
      "  Stream #0:1 -> #0:1 (pcm_mulaw (native) -> aac (native))\n",
      "Press [q] to stop, [?] for help\n",
      "frame= 4306 fps= 60 q=-1.0 Lsize=   28185kB time=00:02:52.29 bitrate=1340.1kbits/s dup=1723 drop=0    \n",
      "video:27253kB audio:858kB subtitle:0kB other streams:0kB global headers:0kB muxing overhead: 0.262354%\n",
      "\u001b[1;36m[libx264 @ 0x24515e0] \u001b[0mframe I:18    Avg QP:16.11  size:223197\n",
      "\u001b[1;36m[libx264 @ 0x24515e0] \u001b[0mframe P:1188  Avg QP:19.25  size: 17878\n",
      "\u001b[1;36m[libx264 @ 0x24515e0] \u001b[0mframe B:3100  Avg QP:23.14  size:   855\n",
      "\u001b[1;36m[libx264 @ 0x24515e0] \u001b[0mconsecutive B-frames:  4.0%  0.0%  0.0% 96.0%\n",
      "\u001b[1;36m[libx264 @ 0x24515e0] \u001b[0mmb I  I16..4: 12.1% 53.7% 34.1%\n",
      "\u001b[1;36m[libx264 @ 0x24515e0] \u001b[0mmb P  I16..4:  0.7%  0.6%  0.1%  P16..4: 23.1%  5.9%  4.5%  0.0%  0.0%    skip:65.0%\n",
      "\u001b[1;36m[libx264 @ 0x24515e0] \u001b[0mmb B  I16..4:  0.0%  0.0%  0.0%  B16..8: 12.7%  0.0%  0.0%  direct: 0.1%  skip:87.2%  L0:40.3% L1:59.6% BI: 0.1%\n",
      "\u001b[1;36m[libx264 @ 0x24515e0] \u001b[0m8x8 transform intra:48.4% inter:67.7%\n",
      "\u001b[1;36m[libx264 @ 0x24515e0] \u001b[0mcoded y,uvDC,uvAC intra: 46.9% 28.0% 11.5% inter: 3.7% 4.2% 0.1%\n",
      "\u001b[1;36m[libx264 @ 0x24515e0] \u001b[0mi16 v,h,dc,p:  7% 25%  4% 64%\n",
      "\u001b[1;36m[libx264 @ 0x24515e0] \u001b[0mi8 v,h,dc,ddl,ddr,vr,hd,vl,hu: 16% 20% 23%  4%  7%  4% 11%  5%  9%\n",
      "\u001b[1;36m[libx264 @ 0x24515e0] \u001b[0mi4 v,h,dc,ddl,ddr,vr,hd,vl,hu: 25% 22% 13%  4%  7%  5% 11%  5%  8%\n",
      "\u001b[1;36m[libx264 @ 0x24515e0] \u001b[0mi8c dc,h,v,p: 67% 16% 15%  2%\n",
      "\u001b[1;36m[libx264 @ 0x24515e0] \u001b[0mWeighted P-Frames: Y:0.0% UV:0.0%\n",
      "\u001b[1;36m[libx264 @ 0x24515e0] \u001b[0mref P L0: 70.4%  9.1% 15.9%  4.6%\n",
      "\u001b[1;36m[libx264 @ 0x24515e0] \u001b[0mref B L0: 84.6% 13.8%  1.7%\n",
      "\u001b[1;36m[libx264 @ 0x24515e0] \u001b[0mref B L1: 96.6%  3.4%\n",
      "\u001b[1;36m[libx264 @ 0x24515e0] \u001b[0mkb/s:1296.14\n"
     ]
    }
   ],
   "source": [
    " !ffmpeg -ss {start_time} -i {vid_name} -t {num_second} -c:v libx264 -c:a aac -strict experimental -b:a 128k {file_name} -y \n"
   ]
  },
  {
   "cell_type": "code",
   "execution_count": 29,
   "metadata": {
    "ExecuteTime": {
     "end_time": "2019-02-08T19:54:57.137818Z",
     "start_time": "2019-02-08T19:54:31.271880Z"
    }
   },
   "outputs": [
    {
     "name": "stdout",
     "output_type": "stream",
     "text": [
      "ffmpeg version 2.8.15-0ubuntu0.16.04.1 Copyright (c) 2000-2018 the FFmpeg developers\n",
      "  built with gcc 5.4.0 (Ubuntu 5.4.0-6ubuntu1~16.04.10) 20160609\n",
      "  configuration: --prefix=/usr --extra-version=0ubuntu0.16.04.1 --build-suffix=-ffmpeg --toolchain=hardened --libdir=/usr/lib/x86_64-linux-gnu --incdir=/usr/include/x86_64-linux-gnu --cc=cc --cxx=g++ --enable-gpl --enable-shared --disable-stripping --disable-decoder=libopenjpeg --disable-decoder=libschroedinger --enable-avresample --enable-avisynth --enable-gnutls --enable-ladspa --enable-libass --enable-libbluray --enable-libbs2b --enable-libcaca --enable-libcdio --enable-libflite --enable-libfontconfig --enable-libfreetype --enable-libfribidi --enable-libgme --enable-libgsm --enable-libmodplug --enable-libmp3lame --enable-libopenjpeg --enable-libopus --enable-libpulse --enable-librtmp --enable-libschroedinger --enable-libshine --enable-libsnappy --enable-libsoxr --enable-libspeex --enable-libssh --enable-libtheora --enable-libtwolame --enable-libvorbis --enable-libvpx --enable-libwavpack --enable-libwebp --enable-libx265 --enable-libxvid --enable-libzvbi --enable-openal --enable-opengl --enable-x11grab --enable-libdc1394 --enable-libiec61883 --enable-libzmq --enable-frei0r --enable-libx264 --enable-libopencv\n",
      "  libavutil      54. 31.100 / 54. 31.100\n",
      "  libavcodec     56. 60.100 / 56. 60.100\n",
      "  libavformat    56. 40.101 / 56. 40.101\n",
      "  libavdevice    56.  4.100 / 56.  4.100\n",
      "  libavfilter     5. 40.101 /  5. 40.101\n",
      "  libavresample   2.  1.  0 /  2.  1.  0\n",
      "  libswscale      3.  1.101 /  3.  1.101\n",
      "  libswresample   1.  2.101 /  1.  2.101\n",
      "  libpostproc    53.  3.100 / 53.  3.100\n",
      "Input #0, mpeg, from 'ch01_20190208180212.mp4':\n",
      "  Duration: 00:31:59.02, start: 87588.073622, bitrate: 1582 kb/s\n",
      "    Stream #0:0[0x1e0]: Video: hevc (Main), yuvj420p(pc, bt709), 1920x1080, 30 fps, 25 tbr, 90k tbn, 30 tbc\n",
      "    Stream #0:1[0x1c0]: Audio: pcm_mulaw, 8000 Hz, mono, s16, 64 kb/s\n",
      "\u001b[0;33mNo pixel format specified, yuvj420p for H.264 encoding chosen.\n",
      "Use -pix_fmt yuv420p for compatibility with outdated media players.\n",
      "\u001b[0m\u001b[1;36m[libx264 @ 0xca55e0] \u001b[0musing cpu capabilities: MMX2 SSE2Fast SSSE3 SSE4.2 AVX FMA3 AVX2 LZCNT BMI2\n",
      "\u001b[1;36m[libx264 @ 0xca55e0] \u001b[0mprofile High, level 4.0\n",
      "\u001b[1;36m[libx264 @ 0xca55e0] \u001b[0m264 - core 148 r2643 5c65704 - H.264/MPEG-4 AVC codec - Copyleft 2003-2015 - http://www.videolan.org/x264.html - options: cabac=1 ref=3 deblock=1:0:0 analyse=0x3:0x113 me=hex subme=7 psy=1 psy_rd=1.00:0.00 mixed_ref=1 me_range=16 chroma_me=1 trellis=1 8x8dct=1 cqm=0 deadzone=21,11 fast_pskip=1 chroma_qp_offset=-2 threads=12 lookahead_threads=2 sliced_threads=0 nr=0 decimate=1 interlaced=0 bluray_compat=0 constrained_intra=0 bframes=3 b_pyramid=2 b_adapt=1 b_bias=0 direct=1 weightb=1 open_gop=0 weightp=2 keyint=250 keyint_min=25 scenecut=40 intra_refresh=0 rc_lookahead=40 rc=crf mbtree=1 crf=23.0 qcomp=0.60 qpmin=0 qpmax=69 qpstep=4 ip_ratio=1.40 aq=1:1.00\n",
      "\u001b[1;36m[aac @ 0xe07900] \u001b[0m\u001b[0;33mToo many bits per frame requested, clamping to max\n",
      "\u001b[0mOutput #0, mp4, to 'out.mp4':\n",
      "  Metadata:\n",
      "    encoder         : Lavf56.40.101\n",
      "    Stream #0:0: Video: h264 (libx264) ([33][0][0][0] / 0x0021), yuvj420p(pc), 1920x1080, q=-1--1, 25 fps, 12800 tbn, 25 tbc\n",
      "    Metadata:\n",
      "      encoder         : Lavc56.60.100 libx264\n",
      "    Stream #0:1: Audio: aac ([64][0][0][0] / 0x0040), 8000 Hz, mono, fltp, 48 kb/s\n",
      "    Metadata:\n",
      "      encoder         : Lavc56.60.100 aac\n",
      "Stream mapping:\n",
      "  Stream #0:0 -> #0:0 (hevc (native) -> h264 (libx264))\n",
      "  Stream #0:1 -> #0:1 (pcm_mulaw (native) -> aac (native))\n",
      "Press [q] to stop, [?] for help\n",
      "\u001b[0;36m[hevc @ 0x13cf480] \u001b[0m\u001b[1;31mCould not find ref with POC 12\n",
      "frame= 1500 fps= 58 q=-1.0 Lsize=    9202kB time=00:01:00.03 bitrate=1255.7kbits/s dup=601 drop=0      \n",
      "video:8878kB audio:297kB subtitle:0kB other streams:0kB global headers:0kB muxing overhead: 0.289190%\n",
      "\u001b[1;36m[libx264 @ 0xca55e0] \u001b[0mframe I:6     Avg QP:16.63  size:216531\n",
      "\u001b[1;36m[libx264 @ 0xca55e0] \u001b[0mframe P:414   Avg QP:19.54  size: 16376\n",
      "\u001b[1;36m[libx264 @ 0xca55e0] \u001b[0mframe B:1080  Avg QP:22.98  size:   937\n",
      "\u001b[1;36m[libx264 @ 0xca55e0] \u001b[0mconsecutive B-frames:  4.0%  0.0%  0.0% 96.0%\n",
      "\u001b[1;36m[libx264 @ 0xca55e0] \u001b[0mmb I  I16..4: 13.1% 53.0% 33.9%\n",
      "\u001b[1;36m[libx264 @ 0xca55e0] \u001b[0mmb P  I16..4:  0.7%  0.5%  0.1%  P16..4: 23.0%  5.4%  4.3%  0.0%  0.0%    skip:66.0%\n",
      "\u001b[1;36m[libx264 @ 0xca55e0] \u001b[0mmb B  I16..4:  0.0%  0.0%  0.0%  B16..8: 13.9%  0.0%  0.0%  direct: 0.1%  skip:86.0%  L0:31.6% L1:68.3% BI: 0.1%\n",
      "\u001b[1;36m[libx264 @ 0xca55e0] \u001b[0m8x8 transform intra:47.3% inter:68.2%\n",
      "\u001b[1;36m[libx264 @ 0xca55e0] \u001b[0mcoded y,uvDC,uvAC intra: 45.6% 27.7% 11.2% inter: 3.6% 4.1% 0.1%\n",
      "\u001b[1;36m[libx264 @ 0xca55e0] \u001b[0mi16 v,h,dc,p:  7% 25%  4% 64%\n",
      "\u001b[1;36m[libx264 @ 0xca55e0] \u001b[0mi8 v,h,dc,ddl,ddr,vr,hd,vl,hu: 17% 20% 23%  4%  7%  4% 10%  5%  9%\n",
      "\u001b[1;36m[libx264 @ 0xca55e0] \u001b[0mi4 v,h,dc,ddl,ddr,vr,hd,vl,hu: 24% 22% 12%  4%  7%  5% 11%  6%  8%\n",
      "\u001b[1;36m[libx264 @ 0xca55e0] \u001b[0mi8c dc,h,v,p: 67% 17% 15%  2%\n",
      "\u001b[1;36m[libx264 @ 0xca55e0] \u001b[0mWeighted P-Frames: Y:0.0% UV:0.0%\n",
      "\u001b[1;36m[libx264 @ 0xca55e0] \u001b[0mref P L0: 70.1%  8.3% 15.7%  5.9%\n",
      "\u001b[1;36m[libx264 @ 0xca55e0] \u001b[0mref B L0: 82.2% 15.4%  2.3%\n",
      "\u001b[1;36m[libx264 @ 0xca55e0] \u001b[0mref B L1: 94.5%  5.5%\n",
      "\u001b[1;36m[libx264 @ 0xca55e0] \u001b[0mkb/s:1212.10\n"
     ]
    }
   ],
   "source": [
    "# vid_idx=0\n",
    "# while True:\n",
    "#     ret,frame = cap.read()\n",
    "#     if not ret:\n",
    "#         break\n",
    "#     cv2.imshow('preview',frame)\n",
    "#     k = cv2.waitKey(1)\n",
    "#     cv2.setTrackbarPos('scroll','preview',int(cap.get(1)))\n",
    "#     ### current frame Position\n",
    "#     c_f = cv2.getTrackbarPos('scroll','preview')\n",
    "#     cap.set(1,int(c_f))\n",
    "\n",
    "#     if ((k==43) or (k==63)):\n",
    "#         t1 = cv2.getTrackbarPos('start_frame','preview')\n",
    "#         t2 = cv2.getTrackbarPos('end_frame','preview')\n",
    "#         start_time  =  get_time(t1)\n",
    "#         num_second = (t2-t1)/fps\n",
    "#         file_name = 'cut_vids/out_'+str(vid_idx)+'.mp4'\n",
    "#         !ffmpeg -ss {start_time} -i ch01_20190208180212.mp4 -t {num_second} -c:v libx264 -c:a aac -strict experimental -b:a 128k {file_name} -y \n",
    "    \n",
    "#     if k==27:\n",
    "#         cap.release()\n",
    "#         cv2.destroyAllWindows()\n",
    "#         break"
   ]
  },
  {
   "cell_type": "code",
   "execution_count": 23,
   "metadata": {
    "ExecuteTime": {
     "end_time": "2019-02-08T19:24:35.925040Z",
     "start_time": "2019-02-08T19:24:35.895955Z"
    }
   },
   "outputs": [
    {
     "name": "stdout",
     "output_type": "stream",
     "text": [
      "\n",
      "[MoviePy] Running:\n",
      ">>> /home/prateek/.virtualenvs/cv3/lib/python3.5/site-packages/imageio_ffmpeg/binaries/ffmpeg-linux64-v4.1 -y -i ch01_20190208180212.mp4 -ss 120.00 -t 180.00 -vcodec copy -acodec copy test.mp4\n",
      "[MoviePy] This command returned an error !"
     ]
    },
    {
     "ename": "OSError",
     "evalue": "ffmpeg version 4.1-static https://johnvansickle.com/ffmpeg/  Copyright (c) 2000-2018 the FFmpeg developers\n  built with gcc 6.3.0 (Debian 6.3.0-18+deb9u1) 20170516\n  configuration: --enable-gpl --enable-version3 --enable-static --disable-debug --disable-ffplay --disable-indev=sndio --disable-outdev=sndio --cc=gcc-6 --enable-fontconfig --enable-frei0r --enable-gnutls --enable-gray --enable-libaom --enable-libfribidi --enable-libass --enable-libvmaf --enable-libfreetype --enable-libmp3lame --enable-libopencore-amrnb --enable-libopencore-amrwb --enable-libopenjpeg --enable-librubberband --enable-libsoxr --enable-libspeex --enable-libvorbis --enable-libopus --enable-libtheora --enable-libvidstab --enable-libvo-amrwbenc --enable-libvpx --enable-libwebp --enable-libx264 --enable-libx265 --enable-libxml2 --enable-libxvid --enable-libzimg\n  libavutil      56. 22.100 / 56. 22.100\n  libavcodec     58. 35.100 / 58. 35.100\n  libavformat    58. 20.100 / 58. 20.100\n  libavdevice    58.  5.100 / 58.  5.100\n  libavfilter     7. 40.101 /  7. 40.101\n  libswscale      5.  3.100 /  5.  3.100\n  libswresample   3.  3.100 /  3.  3.100\n  libpostproc    55.  3.100 / 55.  3.100\nInput #0, mpeg, from 'ch01_20190208180212.mp4':\n  Duration: 00:31:59.02, start: 87588.073622, bitrate: 1582 kb/s\n    Stream #0:0[0x1e0]: Video: hevc (Main), yuvj420p(pc, bt709), 1920x1080, 30 fps, 25 tbr, 90k tbn, 30 tbc\n    Stream #0:1[0x1c0]: Audio: pcm_mulaw, 8000 Hz, mono, s16, 64 kb/s\n[mp4 @ 0x6ba5d40] Could not find tag for codec pcm_mulaw in stream #1, codec not currently supported in container\nCould not write header for output file #0 (incorrect codec parameters ?): Invalid argument\nStream mapping:\n  Stream #0:0 -> #0:0 (copy)\n  Stream #0:1 -> #0:1 (copy)\n    Last message repeated 1 times\n",
     "output_type": "error",
     "traceback": [
      "\u001b[0;31m---------------------------------------------------------------------------\u001b[0m",
      "\u001b[0;31mOSError\u001b[0m                                   Traceback (most recent call last)",
      "\u001b[0;32m<ipython-input-23-dc69711b0ff7>\u001b[0m in \u001b[0;36m<module>\u001b[0;34m()\u001b[0m\n\u001b[0;32m----> 1\u001b[0;31m \u001b[0mffmpeg_extract_subclip\u001b[0m\u001b[0;34m(\u001b[0m\u001b[0;34m\"ch01_20190208180212.mp4\"\u001b[0m\u001b[0;34m,\u001b[0m \u001b[0;36m120\u001b[0m\u001b[0;34m,\u001b[0m \u001b[0;36m300\u001b[0m\u001b[0;34m,\u001b[0m \u001b[0mtargetname\u001b[0m\u001b[0;34m=\u001b[0m\u001b[0;34m\"test.mp4\"\u001b[0m\u001b[0;34m)\u001b[0m\u001b[0;34m\u001b[0m\u001b[0m\n\u001b[0m",
      "\u001b[0;32m~/.virtualenvs/cv3/lib/python3.5/site-packages/moviepy/video/io/ffmpeg_tools.py\u001b[0m in \u001b[0;36mffmpeg_extract_subclip\u001b[0;34m(filename, t1, t2, targetname)\u001b[0m\n\u001b[1;32m     39\u001b[0m            \"-vcodec\", \"copy\", \"-acodec\", \"copy\", targetname]\n\u001b[1;32m     40\u001b[0m \u001b[0;34m\u001b[0m\u001b[0m\n\u001b[0;32m---> 41\u001b[0;31m     \u001b[0msubprocess_call\u001b[0m\u001b[0;34m(\u001b[0m\u001b[0mcmd\u001b[0m\u001b[0;34m)\u001b[0m\u001b[0;34m\u001b[0m\u001b[0m\n\u001b[0m\u001b[1;32m     42\u001b[0m \u001b[0;34m\u001b[0m\u001b[0m\n\u001b[1;32m     43\u001b[0m \u001b[0;34m\u001b[0m\u001b[0m\n",
      "\u001b[0;32m~/.virtualenvs/cv3/lib/python3.5/site-packages/moviepy/tools.py\u001b[0m in \u001b[0;36msubprocess_call\u001b[0;34m(cmd, verbose, errorprint)\u001b[0m\n\u001b[1;32m     47\u001b[0m     \u001b[0;32mif\u001b[0m \u001b[0mproc\u001b[0m\u001b[0;34m.\u001b[0m\u001b[0mreturncode\u001b[0m\u001b[0;34m:\u001b[0m\u001b[0;34m\u001b[0m\u001b[0m\n\u001b[1;32m     48\u001b[0m         \u001b[0mverbose_print\u001b[0m\u001b[0;34m(\u001b[0m\u001b[0merrorprint\u001b[0m\u001b[0;34m,\u001b[0m \u001b[0;34m\"\\n[MoviePy] This command returned an error !\"\u001b[0m\u001b[0;34m)\u001b[0m\u001b[0;34m\u001b[0m\u001b[0m\n\u001b[0;32m---> 49\u001b[0;31m         \u001b[0;32mraise\u001b[0m \u001b[0mIOError\u001b[0m\u001b[0;34m(\u001b[0m\u001b[0merr\u001b[0m\u001b[0;34m.\u001b[0m\u001b[0mdecode\u001b[0m\u001b[0;34m(\u001b[0m\u001b[0;34m'utf8'\u001b[0m\u001b[0;34m)\u001b[0m\u001b[0;34m)\u001b[0m\u001b[0;34m\u001b[0m\u001b[0m\n\u001b[0m\u001b[1;32m     50\u001b[0m     \u001b[0;32melse\u001b[0m\u001b[0;34m:\u001b[0m\u001b[0;34m\u001b[0m\u001b[0m\n\u001b[1;32m     51\u001b[0m         \u001b[0mverbose_print\u001b[0m\u001b[0;34m(\u001b[0m\u001b[0mverbose\u001b[0m\u001b[0;34m,\u001b[0m \u001b[0;34m\"\\n... command successful.\\n\"\u001b[0m\u001b[0;34m)\u001b[0m\u001b[0;34m\u001b[0m\u001b[0m\n",
      "\u001b[0;31mOSError\u001b[0m: ffmpeg version 4.1-static https://johnvansickle.com/ffmpeg/  Copyright (c) 2000-2018 the FFmpeg developers\n  built with gcc 6.3.0 (Debian 6.3.0-18+deb9u1) 20170516\n  configuration: --enable-gpl --enable-version3 --enable-static --disable-debug --disable-ffplay --disable-indev=sndio --disable-outdev=sndio --cc=gcc-6 --enable-fontconfig --enable-frei0r --enable-gnutls --enable-gray --enable-libaom --enable-libfribidi --enable-libass --enable-libvmaf --enable-libfreetype --enable-libmp3lame --enable-libopencore-amrnb --enable-libopencore-amrwb --enable-libopenjpeg --enable-librubberband --enable-libsoxr --enable-libspeex --enable-libvorbis --enable-libopus --enable-libtheora --enable-libvidstab --enable-libvo-amrwbenc --enable-libvpx --enable-libwebp --enable-libx264 --enable-libx265 --enable-libxml2 --enable-libxvid --enable-libzimg\n  libavutil      56. 22.100 / 56. 22.100\n  libavcodec     58. 35.100 / 58. 35.100\n  libavformat    58. 20.100 / 58. 20.100\n  libavdevice    58.  5.100 / 58.  5.100\n  libavfilter     7. 40.101 /  7. 40.101\n  libswscale      5.  3.100 /  5.  3.100\n  libswresample   3.  3.100 /  3.  3.100\n  libpostproc    55.  3.100 / 55.  3.100\nInput #0, mpeg, from 'ch01_20190208180212.mp4':\n  Duration: 00:31:59.02, start: 87588.073622, bitrate: 1582 kb/s\n    Stream #0:0[0x1e0]: Video: hevc (Main), yuvj420p(pc, bt709), 1920x1080, 30 fps, 25 tbr, 90k tbn, 30 tbc\n    Stream #0:1[0x1c0]: Audio: pcm_mulaw, 8000 Hz, mono, s16, 64 kb/s\n[mp4 @ 0x6ba5d40] Could not find tag for codec pcm_mulaw in stream #1, codec not currently supported in container\nCould not write header for output file #0 (incorrect codec parameters ?): Invalid argument\nStream mapping:\n  Stream #0:0 -> #0:0 (copy)\n  Stream #0:1 -> #0:1 (copy)\n    Last message repeated 1 times\n"
     ]
    }
   ],
   "source": [
    "ffmpeg_extract_subclip(\"ch01_20190208180212.mp4\", 120, 300, targetname=\"test.mp4\")\n"
   ]
  },
  {
   "cell_type": "code",
   "execution_count": 5,
   "metadata": {
    "ExecuteTime": {
     "end_time": "2019-02-08T16:03:15.812882Z",
     "start_time": "2019-02-08T16:02:59.442393Z"
    }
   },
   "outputs": [
    {
     "name": "stdout",
     "output_type": "stream",
     "text": [
      "Collecting imageio_ffmpeg\n",
      "\u001b[?25l  Downloading https://files.pythonhosted.org/packages/aa/72/ce8c25df387e6e4fce29183e0917e792a18201a7df264aadec14cb751a9d/imageio_ffmpeg-0.2.0-py3-none-manylinux2010_x86_64.whl (22.2MB)\n",
      "\u001b[K    100% |████████████████████████████████| 22.2MB 1.3MB/s eta 0:00:01\n",
      "\u001b[?25hInstalling collected packages: imageio-ffmpeg\n",
      "Successfully installed imageio-ffmpeg-0.2.0\n"
     ]
    }
   ],
   "source": [
    "!{sys.executable} -m pip install imageio_ffmpeg"
   ]
  },
  {
   "cell_type": "code",
   "execution_count": null,
   "metadata": {},
   "outputs": [],
   "source": []
  }
 ],
 "metadata": {
  "hide_input": false,
  "kernelspec": {
   "display_name": "cv3 (python3)",
   "language": "python",
   "name": "cv3"
  },
  "language_info": {
   "codemirror_mode": {
    "name": "ipython",
    "version": 3
   },
   "file_extension": ".py",
   "mimetype": "text/x-python",
   "name": "python",
   "nbconvert_exporter": "python",
   "pygments_lexer": "ipython3",
   "version": "3.5.2"
  }
 },
 "nbformat": 4,
 "nbformat_minor": 2
}
